<svg width="142" height="100" viewBox="0 0 142 100" fill="none" xmlns="http://www.w3.org/2000/svg">
<path fill-rule="evenodd" clip-rule="evenodd" d="M34.2 0H64.8H76.2H106.8V9H76.2V27H88.8V36H76.2V54H106.8V63H34.2V54H64.8V36H52.2V27H64.8V9H34.2V0ZM97.2513 87.648C97.2513 79.52 91.6512 76 84.7392 76C77.8593 76 72.2912 79.52 72.2912 87.648C72.2912 95.776 77.8593 99.296 84.7392 99.296C91.6512 99.296 97.2513 95.776 97.2513 87.648ZM94.3712 87.648C94.3712 95.168 90.0512 98.656 84.7392 98.656C79.4592 98.656 75.1712 95.168 75.1712 87.648C75.1712 80.128 79.4592 76.64 84.7392 76.64C90.0512 76.64 94.3712 80.128 94.3712 87.648ZM18.424 98.208H5.784V87.968H11V87.328H5.784V77.088H17.88V76.448H2.90399V87.3279L0 87.328V87.9679H2.90399V98.848H18.424V98.208ZM41.684 76.448V96.064L26.548 76.448H24.404V98.848H25.044V79.232L40.18 98.848H42.324V76.448H41.684ZM59.6267 96.8L69.1947 76.448H69.8987L59.3387 98.848H57.4187L46.8587 76.448H50.0267L59.6267 96.8ZM117.912 98.848L109.624 87.904L105.816 91.872V98.848H102.936V76.448H105.816V90.944L119.608 76.448H120.536L111.64 85.792L121.464 98.848H117.912ZM141.58 98.208H128.94V87.968H139.628V87.328H128.94V77.088H141.036V76.448H126.06V87.3279L123 87.328V87.9679H126.06V98.848H141.58V98.208Z" fill="white"/>
</svg>
