<svg width="20" height="9" viewBox="0 0 20 9" fill="none" xmlns="http://www.w3.org/2000/svg">
<path d="M18.75 3.7175H2.56L5 1.2775C5.29 0.987499 5.29 0.5075 5 0.2175C4.71 -0.0725 4.23 -0.0725 3.94 0.2175L0.23 3.9275C0.16 3.9975 0.0999999 4.0875 0.0599999 4.1875C0.0599999 4.1975 0.06 4.2075 0.05 4.2175C0.02 4.2975 0 4.3875 0 4.4775C0 4.6775 0.08 4.8675 0.22 5.0075L3.94 8.7275C4.09 8.8775 4.28 8.9475 4.47 8.9475C4.66 8.9475 4.85 8.8775 5 8.7275C5.29 8.4375 5.29 7.9575 5 7.6675L2.55 5.2175H18.75C19.16 5.2175 19.5 4.8775 19.5 4.4675C19.5 4.0575 19.16 3.7175 18.75 3.7175Z" fill="white"/>
</svg>
